<svg width="137" height="80" viewBox="0 0 137 80" fill="none" xmlns="http://www.w3.org/2000/svg">
<path d="M8.58 48.42C8.58 49.1 8.74 49.74 9.06 50.34C9.42 50.94 9.92 51.44 10.56 51.84C11.2 52.2 11.96 52.38 12.84 52.38C14.12 52.38 15.36 52.08 16.56 51.48C17.76 50.88 18.88 50.06 19.92 49.02V43.8H13.38C11.86 43.8 10.68 44.28 9.84 45.24C9 46.2 8.58 47.26 8.58 48.42ZM6.12 35.22L4.32 29.7C5.08 29.18 6.1 28.74 7.38 28.38C8.66 27.98 9.96 27.68 11.28 27.48C12.6 27.24 13.66 27.12 14.46 27.12C16.74 27.12 18.8 27.58 20.64 28.5C22.48 29.38 23.94 30.62 25.02 32.22C26.14 33.82 26.7 35.6 26.7 37.56V57H22.14L21.12 54.06C20.08 55.06 18.84 55.92 17.4 56.64C15.96 57.36 14.48 57.72 12.96 57.72C9.48 57.72 6.9 56.86 5.22 55.14C3.54 53.42 2.7 51.18 2.7 48.42C2.7 45.5 3.7 43.26 5.7 41.7C7.7 40.14 10.3 39.34 13.5 39.3H19.86V39.12C19.82 37.4 19.4 36 18.6 34.92C17.8 33.8 16.46 33.24 14.58 33.24C13.06 33.24 11.54 33.46 10.02 33.9C8.54 34.3 7.24 34.74 6.12 35.22ZM40.0828 57H33.3628V27.9H36.9628L39.1828 32.7C39.9828 32.02 40.9428 31.32 42.0628 30.6C43.1828 29.84 44.3428 29.2 45.5428 28.68C46.7828 28.16 47.9228 27.9 48.9628 27.9L50.4028 33.3C49.4428 33.3 48.3428 33.54 47.1028 34.02C45.9028 34.5 44.6828 35.12 43.4428 35.88C42.2428 36.64 41.1228 37.5 40.0828 38.46V57ZM58.5966 57H55.0566V15.3L61.7166 14.64V52.62L58.5966 57ZM59.3166 37.02L57.3966 32.4C58.2766 31.24 59.2966 30.28 60.4566 29.52C61.6166 28.72 62.7966 28.12 63.9966 27.72C65.2366 27.32 66.3966 27.12 67.4766 27.12C70.4766 27.12 73.0566 27.76 75.2166 29.04C77.4166 30.28 79.0966 32.06 80.2566 34.38C81.4566 36.66 82.0566 39.36 82.0566 42.48C82.0566 45.52 81.4566 48.2 80.2566 50.52C79.0566 52.8 77.3566 54.58 75.1566 55.86C72.9966 57.14 70.3766 57.78 67.2966 57.78C66.3366 57.78 65.1966 57.56 63.8766 57.12C62.5966 56.68 61.3566 56.06 60.1566 55.26C58.9966 54.46 58.0366 53.52 57.2766 52.44L59.2566 47.76C60.5766 49.32 61.8566 50.42 63.0966 51.06C64.3766 51.66 65.7766 51.96 67.2966 51.96C68.9766 51.96 70.3966 51.56 71.5566 50.76C72.7166 49.92 73.5966 48.78 74.1966 47.34C74.7966 45.9 75.0966 44.3 75.0966 42.54C75.0966 40.62 74.7966 38.94 74.1966 37.5C73.6366 36.06 72.7766 34.94 71.6166 34.14C70.4566 33.3 69.0366 32.88 67.3566 32.88C65.7566 32.88 64.3366 33.22 63.0966 33.9C61.8966 34.58 60.6366 35.62 59.3166 37.02ZM112.592 44.22H92.4319C92.6319 45.78 93.0519 47.14 93.6919 48.3C94.3719 49.46 95.3519 50.38 96.6319 51.06C97.9519 51.7 99.6519 52.02 101.732 52.02C103.412 52.02 104.892 51.78 106.172 51.3C107.492 50.82 108.872 50.2 110.312 49.44L112.352 54.36C111.432 54.96 110.432 55.54 109.352 56.1C108.272 56.62 107.092 57.02 105.812 57.3C104.532 57.58 103.132 57.72 101.612 57.72C98.0519 57.72 95.0519 57.1 92.6119 55.86C90.1719 54.58 88.3519 52.8 87.1519 50.52C85.9519 48.2 85.3519 45.52 85.3519 42.48C85.3519 39.4 85.9119 36.72 87.0319 34.44C88.1919 32.12 89.8319 30.32 91.9519 29.04C94.1119 27.76 96.6719 27.12 99.6319 27.12C102.632 27.12 105.092 27.84 107.012 29.28C108.932 30.72 110.332 32.62 111.212 34.98C112.132 37.34 112.592 39.94 112.592 42.78V44.22ZM92.5519 39.66H106.112C105.872 38.22 105.452 37 104.852 36C104.292 35 103.552 34.24 102.632 33.72C101.752 33.16 100.672 32.88 99.3919 32.88C98.1519 32.88 97.0319 33.16 96.0319 33.72C95.0719 34.24 94.2919 35 93.6919 36C93.1319 37 92.7519 38.22 92.5519 39.66ZM124.399 57H117.679V27.9H121.279L123.499 32.7C124.299 32.02 125.259 31.32 126.379 30.6C127.499 29.84 128.659 29.2 129.859 28.68C131.099 28.16 132.239 27.9 133.279 27.9L134.719 33.3C133.759 33.3 132.659 33.54 131.419 34.02C130.219 34.5 128.999 35.12 127.759 35.88C126.559 36.64 125.439 37.5 124.399 38.46V57Z" fill="#99BAED"/>
</svg>
