<svg width="39" height="15" viewBox="0 0 39 15" fill="none" xmlns="http://www.w3.org/2000/svg">
<path d="M36.437 0.96601C35.2849 0.978245 34.3414 1.92175 34.3292 3.07385L34.3039 5.45562L31.7739 5.48249L31.7992 3.10072C31.8114 1.94861 30.8877 1.02494 29.736 1.03679C28.5843 1.0494 27.6408 1.99291 27.6282 3.14463L27.6025 5.52679L25.0725 5.55366L25.0978 3.17188C25.11 2.01978 24.1863 1.09611 23.0346 1.10796C21.8829 1.12057 20.9394 2.06407 20.9268 3.21579L20.9011 5.59796L18.3711 5.62483L18.3964 3.24228C18.4086 2.09095 17.4846 1.1669 16.3332 1.17913C15.1811 1.19136 14.2376 2.13486 14.2254 3.28696L14.1997 5.66913L11.6697 5.696L11.6946 3.31384C11.7072 2.16212 10.7832 1.23807 9.63146 1.25068C8.47936 1.26292 7.53586 2.20642 7.52362 3.35852L7.49833 5.7403L4.96792 5.76755L4.99284 3.3854C5.00545 2.23367 4.0814 1.30962 2.92968 1.32224C1.77758 1.33447 0.834079 2.27797 0.821844 3.43007L0.774404 7.89716C0.774784 7.89754 0.774784 7.89754 0.774776 7.8983L0.702042 14.7472L38.3804 14.3463L38.4527 7.49778C38.4527 7.49778 38.4531 7.4974 38.4531 7.49663L38.5002 3.02917C38.5128 1.87745 37.5887 0.953395 36.437 0.96601V0.96601Z" fill="#008FDD"/>
</svg>
