<svg width="40" height="67" viewBox="0 0 40 67" fill="none" xmlns="http://www.w3.org/2000/svg">
<path d="M27.0027 7.49879C26.9974 8.08475 26.7552 8.61737 26.3677 9.00482C25.9807 9.39187 25.448 9.63414 24.8621 9.6394L15.773 9.72137C15.2105 9.72642 14.6727 9.50782 14.2786 9.11371C13.8841 8.71922 13.6655 8.18136 13.6705 7.61884L13.7335 0.650984L1.23647 0.763541L0.881501 40.2694C0.835556 45.3884 2.7858 50.1828 6.3726 53.7696C9.45922 56.8562 13.4403 58.7294 17.7522 59.1629L17.7069 64.217C17.6964 65.3889 18.6375 66.33 19.8094 66.3195C20.3954 66.3143 20.9276 66.0724 21.315 65.6849C21.7025 65.2975 21.9448 64.7649 21.9496 64.1793L21.995 59.1252C26.3158 58.6138 30.3311 56.6688 33.4737 53.5263C37.1254 49.8745 39.1617 45.044 39.208 39.9254L39.5626 0.419156L27.0652 0.531325L27.0027 7.49879ZM26.7824 32.0845L26.7005 41.1736C26.6841 42.9537 25.9761 44.6342 24.7057 45.9045C23.4354 47.1749 21.7553 47.8833 19.9747 47.8993C18.1942 47.9153 16.5265 47.2369 15.2788 45.9892C14.0311 44.7414 13.3527 43.0738 13.3687 41.2932L13.4502 32.2046C13.4662 30.424 14.1746 28.7439 15.445 27.4736C16.7157 26.2029 18.3958 25.4944 20.1764 25.4785C21.9565 25.4629 23.6246 26.1408 24.8723 27.3886C26.1196 28.6367 26.798 30.3044 26.7824 32.0845Z" fill="#008FDD"/>
</svg>
